<svg width="392" height="80" viewBox="0 0 392 80" fill="none" xmlns="http://www.w3.org/2000/svg" xmlns:xlink="http://www.w3.org/1999/xlink">
<g opacity="0.8">
<path d="M17.746,40L8.869,48.869L0,40L8.869,31.131L17.746,40ZM39.266,18.464L54.465,33.67L63.334,24.801L39.266,0.734L15.199,24.801L24.068,33.67L39.266,18.464ZM69.671,31.131L60.802,40L69.671,48.869L78.533,40L69.671,31.131ZM39.266,61.536L24.068,46.337L15.199,55.199L39.266,79.266L63.334,55.199L54.465,46.337L39.266,61.536ZM39.266,48.869L48.135,40L39.266,31.131L30.397,40L39.266,48.869ZM132.867,49.721L132.867,49.598C132.867,43.813 129.798,40.921 124.804,39.018C127.873,37.292 130.466,34.583 130.466,29.727L130.466,29.604C130.466,22.837 125.049,18.464 116.249,18.464L96.271,18.464L96.271,61.536L116.756,61.536C126.476,61.536 132.883,57.6 132.883,49.721L132.867,49.721ZM121.052,31.307C121.052,34.507 118.405,35.865 114.224,35.865L105.5,35.865L105.5,26.773L114.853,26.773C118.85,26.773 121.067,28.369 121.067,31.2L121.052,31.307ZM123.453,48.539C123.453,51.738 120.929,53.211 116.74,53.211L105.5,53.211L105.5,43.752L116.449,43.752C121.313,43.752 123.469,45.539 123.469,48.432L123.453,48.539ZM152.777,61.536L152.777,18.464L143.271,18.464L143.271,61.536L152.777,61.536ZM203.712,61.536L203.712,18.464L194.329,18.464L194.329,44.987L174.151,18.464L165.413,18.464L165.413,61.536L174.765,61.536L174.765,34.154L195.618,61.536L203.712,61.536ZM256.198,61.536L237.708,18.157L228.97,18.157L210.518,61.536L220.176,61.536L224.128,51.877L242.342,51.877L246.278,61.536L256.198,61.536ZM238.974,43.506L227.496,43.506L233.22,29.543L238.974,43.506ZM301.364,61.536L301.364,18.464L291.98,18.464L291.98,44.987L271.796,18.464L263.064,18.464L263.064,61.536L272.41,61.536L272.41,34.154L293.27,61.536L301.364,61.536ZM350.274,54.585L344.252,48.493C340.868,51.562 337.854,53.534 332.928,53.534C325.546,53.534 320.438,47.396 320.438,40L320.438,39.877C320.438,32.497 325.67,26.466 332.928,26.466C337.232,26.466 340.6,28.307 343.944,31.323L349.952,24.372C345.954,20.436 341.098,17.728 332.974,17.728C319.746,17.728 310.518,27.755 310.518,39.977L310.518,40.1C310.518,52.467 319.93,62.249 332.606,62.249C340.898,62.272 345.816,59.319 350.244,54.585L350.274,54.585ZM390.706,61.536L390.706,53.096L367.292,53.096L367.292,44.036L387.6,44.036L387.6,35.596L367.292,35.596L367.292,26.896L390.37,26.896L390.37,18.456L357.878,18.456L357.878,61.528L390.706,61.536Z" fill="#404653"/>
</g>
</svg>
