<svg width="350" height="64" viewBox="0 0 350 64" fill="none" xmlns="http://www.w3.org/2000/svg" xmlns:xlink="http://www.w3.org/1999/xlink">
<g opacity="0.8">
<path d="M70.467,18.271C57.824,18.271 47.945,27.869 47.945,40.718C47.945,53.567 57.574,63.083 70.467,63.083C83.36,63.083 93.157,53.403 93.157,40.636C93.157,27.951 83.528,18.271 70.467,18.271ZM70.553,53.823C63.353,53.823 58.077,48.231 58.077,40.721C58.077,33.126 63.267,27.538 70.467,27.538C77.753,27.538 83.025,33.212 83.025,40.721C83.025,48.231 77.753,53.823 70.553,53.823ZM95.919,28.037L102.199,28.037L102.199,62.252L112.246,62.252L112.246,19.105L95.919,19.105L95.919,28.037ZM22.661,27.534C27.937,27.534 32.123,30.788 33.712,35.628L44.346,35.628C42.419,25.282 33.88,18.271 22.746,18.271C10.103,18.271 0.224,27.869 0.224,40.721C0.224,53.573 9.853,63.086 22.746,63.086C33.63,63.086 42.337,56.075 44.264,45.643L33.712,45.643C32.205,50.483 28.019,53.823 22.743,53.823C15.458,53.823 10.352,48.231 10.352,40.721C10.355,33.126 15.379,27.534 22.661,27.534ZM286.81,36.548L279.442,35.464C275.926,34.965 273.414,33.796 273.414,31.041C273.414,28.037 276.68,26.536 281.116,26.536C285.972,26.536 289.072,28.621 289.742,32.043L299.454,32.043C298.364,23.364 291.666,18.274 281.37,18.274C270.736,18.274 263.702,23.699 263.702,31.376C263.702,38.718 268.308,42.977 277.6,44.31L284.968,45.394C288.57,45.893 290.578,47.315 290.578,49.984C290.578,53.406 287.062,54.824 282.206,54.824C276.26,54.824 272.912,52.404 272.41,48.733L262.53,48.733C263.452,57.162 270.066,63.086 282.122,63.086C293.09,63.086 300.372,58.078 300.372,49.482C300.372,41.805 295.1,37.799 286.81,36.548ZM107.222,1.331C103.539,1.331 100.774,4.001 100.774,7.672C100.774,11.343 103.536,14.013 107.222,14.013C110.906,14.013 113.671,11.343 113.671,7.672C113.671,4.001 110.906,1.331 107.222,1.331ZM254.66,33.878C254.66,24.533 248.968,18.274 236.912,18.274C225.526,18.274 219.162,24.034 217.906,32.88L227.87,32.88C228.372,29.458 231.052,26.621 236.744,26.621C241.852,26.621 244.364,28.874 244.364,31.629C244.364,35.218 239.758,36.134 234.066,36.718C226.362,37.553 216.818,40.222 216.818,50.237C216.818,57.999 222.598,63.004 231.806,63.004C239.006,63.004 243.528,59.999 245.79,55.241C246.124,59.497 249.306,62.252 253.744,62.252L259.604,62.252L259.604,53.324L254.664,53.324L254.664,33.878L254.66,33.878ZM244.782,44.727C244.782,50.487 239.758,54.742 233.646,54.742C229.876,54.742 226.694,53.156 226.694,49.82C226.694,45.564 231.804,44.396 236.492,43.896C241.012,43.479 243.524,42.478 244.782,40.557L244.782,44.727ZM191.449,18.271C185.838,18.271 181.15,20.609 177.801,24.53L177.801,0.914L167.754,0.914L167.754,62.252L177.634,62.252L177.634,56.578C180.982,60.666 185.756,63.086 191.449,63.086C203.506,63.086 212.632,53.573 212.632,40.721C212.632,27.869 203.338,18.271 191.449,18.271ZM189.942,53.823C182.742,53.823 177.466,48.231 177.466,40.721C177.466,33.212 182.824,27.538 190.024,27.538C197.31,27.538 202.416,33.129 202.416,40.721C202.416,48.231 197.142,53.823 189.942,53.823ZM143.725,18.271C137.195,18.271 132.923,20.941 130.412,24.697L130.412,19.105L120.447,19.105L120.447,62.249L130.494,62.249L130.494,38.8C130.494,32.207 134.68,27.534 140.875,27.534C146.654,27.534 150.252,31.623 150.252,37.549L150.252,62.252L160.299,62.252L160.299,36.801C160.302,25.948 154.694,18.271 143.725,18.271ZM348.264,39.303C348.264,26.953 339.222,18.274 327.082,18.274C314.188,18.274 304.726,27.955 304.726,40.721C304.726,54.158 314.858,63.086 327.248,63.086C337.716,63.086 345.92,56.909 348.012,48.149L337.544,48.149C336.038,51.987 332.354,54.158 327.412,54.158C320.964,54.158 316.108,50.152 315.022,43.141L348.26,43.141L348.26,39.303L348.264,39.303ZM315.61,35.963C317.202,29.954 321.722,27.035 326.914,27.035C332.606,27.035 336.96,30.289 337.964,35.963L315.61,35.963Z" fill="#404653"/>
</g>
</svg>
