<svg width="336" height="80" viewBox="0 0 336 80" fill="none" xmlns="http://www.w3.org/2000/svg" xmlns:xlink="http://www.w3.org/1999/xlink">
<g opacity="0.8">
<path d="M58.679,40L39.046,59.633L78.313,59.633L58.679,40Z" fill="#404653"/>
<path d="M19.414,40L-0.219,20.367L-0.219,59.633L19.414,40Z" fill="#FFFFFF" fill-opacity="0.55"/>
<path d="M58.679,40L78.313,20.367L39.046,20.367L58.679,40Z" fill="#404653"/>
<path d="M39.046,20.367L58.68,0.734L19.414,0.734L39.046,20.367Z" fill="#FFFFFF" fill-opacity="0.75"/>
<path d="M58.679,79.266L78.313,59.633L39.046,59.633L58.679,79.266Z" fill="#404653"/>
<path d="M19.414,79.266L39.046,59.633L-0.219,59.633L19.414,79.266Z" fill="#404653"/>
<path d="M58.68,0.734L39.046,20.367L78.313,20.367L58.68,0.734Z" fill="#404653"/>
<path d="M-0.219,20.367L39.046,20.367L19.414,0.734L-0.219,20.367Z" fill="#404653"/>
<path d="M39.046,59.633L19.414,79.266L58.679,79.266L39.046,59.633Z" fill="#FFFFFF" fill-opacity="0.75"/>
<path d="M19.414,40L-0.219,59.633L39.046,59.633L19.414,40Z" fill="#FFFFFF" fill-opacity="0.6"/>
<path d="M39.046,20.367L-0.219,20.367L19.414,40L39.046,20.367Z" fill="#FFFFFF" fill-opacity="0.6"/>
<path d="M101.116,47.219C102.155,47.219 102.934,46.908 103.453,46.336C103.973,45.765 104.232,44.934 104.232,43.791L111.4,43.791L111.452,43.947C111.608,46.492 110.517,48.985 108.595,50.647C106.518,52.413 103.869,53.348 101.116,53.244C97.272,53.244 94.364,52.05 92.286,49.712C90.157,47.115 89.014,43.843 89.17,40.519L89.17,40C89.17,36.26 90.209,33.196 92.286,30.806C94.312,28.417 97.272,27.274 101.064,27.274C104.232,27.274 106.777,28.157 108.699,29.923C110.673,31.793 111.66,34.494 111.504,37.195L111.452,37.351L104.284,37.351C104.336,36.312 104.025,35.273 103.505,34.442C102.986,33.715 102.207,33.351 101.116,33.351C99.61,33.351 98.571,33.975 98,35.169C97.324,36.727 97.013,38.39 97.117,40.052L97.117,40.571C97.117,42.649 97.428,44.311 98,45.505C98.519,46.596 99.61,47.219 101.116,47.219ZM128.904,34.598L126.047,34.598C125.164,34.598 124.437,34.754 123.865,35.013C123.294,35.325 122.879,35.741 122.619,36.312L122.619,52.777L114.776,52.777L114.776,27.69L122.151,27.69L122.411,31.378C122.827,30.183 123.554,29.144 124.541,28.313C125.372,27.586 126.462,27.223 127.553,27.223C128.28,27.223 129.007,27.326 129.735,27.482L128.904,34.598ZM143.81,41.714L143.81,41.921L143.966,41.921L148.121,27.69L156.484,27.69L146.459,56.465C145.68,58.334 144.693,59.841 143.447,61.035C142.2,62.23 140.278,62.853 137.577,62.853C136.902,62.853 136.331,62.801 135.915,62.697C135.5,62.645 134.825,62.49 133.89,62.23L134.825,56.672L135.292,56.776L135.708,56.828C136.954,56.828 137.837,56.62 138.409,56.257C138.98,55.893 139.395,55.322 139.707,54.595L140.33,52.985L131.604,27.638L139.967,27.638L143.81,41.714ZM173.987,40.259C173.987,38.182 173.676,36.416 173.052,35.169C172.429,33.871 171.442,33.248 170.092,33.248C169.209,33.248 168.43,33.403 167.858,33.715C167.235,34.027 166.768,34.494 166.404,35.117L166.404,45.609C166.768,46.129 167.287,46.544 167.858,46.804C168.585,47.063 169.365,47.219 170.144,47.167C171.546,47.167 172.481,46.596 173.104,45.453C173.779,43.947 174.091,42.337 173.987,40.675L173.987,40.259ZM181.83,40.727C181.83,44.518 180.947,47.531 179.285,49.816C177.623,52.102 174.922,53.348 172.117,53.244C169.884,53.296 167.806,52.309 166.456,50.543L166.456,62.386L158.613,62.386L158.613,27.69L165.936,27.69L166.248,30.443C167.495,28.417 169.728,27.171 172.117,27.223C175.234,27.223 177.623,28.417 179.337,30.806C181.155,33.611 182.038,36.935 181.882,40.259L181.882,40.727L181.83,40.727ZM194.555,21.457L194.555,27.69L198.814,27.69L198.814,33.092L194.555,33.092L194.555,44.622C194.555,45.505 194.763,46.129 195.075,46.544C195.438,46.96 196.01,47.167 196.529,47.167C197.308,47.167 198.087,47.115 198.814,46.96L199.334,52.777C197.775,53.14 196.165,53.348 194.503,53.348C191.906,53.348 189.985,52.621 188.634,51.271C187.284,49.92 186.608,47.739 186.608,44.778L186.608,33.196L183.077,33.196L183.077,27.794L186.608,27.794L186.608,21.561L194.555,21.561L194.555,21.457ZM208.631,40.467C208.631,42.545 208.943,44.207 209.619,45.401C210.293,46.596 211.385,47.167 212.995,47.167C214.553,47.167 215.643,46.596 216.267,45.349C216.941,44.155 217.253,42.493 217.253,40.415L217.253,39.896C217.305,38.182 216.993,36.52 216.267,35.013C215.591,33.767 214.501,33.196 212.891,33.196C211.333,33.196 210.241,33.819 209.619,35.065C208.943,36.312 208.631,37.922 208.631,39.948L208.631,40.467ZM200.789,40C200.633,36.624 201.775,33.351 204.009,30.806C206.139,28.417 209.151,27.223 212.943,27.223C216.785,27.223 219.747,28.417 221.875,30.806C224.057,33.351 225.251,36.624 225.097,40L225.097,40.519C225.097,44.311 224.005,47.375 221.875,49.712C219.747,52.102 216.785,53.244 212.943,53.244C209.099,53.244 206.087,52.05 203.957,49.712C201.775,47.167 200.633,43.843 200.789,40.519L200.789,40ZM235.795,27.69L236.107,31.222C236.939,29.975 237.925,28.988 239.171,28.313C240.419,27.586 241.769,27.223 243.171,27.274C245.665,27.274 247.585,28.054 248.937,29.664C250.339,31.274 251.013,33.819 251.013,37.299L251.013,52.829L243.171,52.829L243.171,37.247C243.171,35.793 242.859,34.806 242.289,34.182C241.717,33.611 240.833,33.299 239.639,33.299C238.341,33.248 237.095,33.819 236.263,34.806L236.263,52.829L228.473,52.829L228.473,27.742L235.795,27.742L235.795,27.69ZM266.233,33.248C265.089,33.248 264.259,33.611 263.687,34.442C263.115,35.221 262.805,36.312 262.649,37.662L262.701,37.766L269.453,37.766L269.453,37.195C269.453,35.896 269.193,34.962 268.673,34.286C268.153,33.559 267.375,33.248 266.233,33.248ZM266.803,53.244C263.063,53.244 260.155,52.102 257.921,49.764C255.689,47.427 254.493,44.259 254.597,41.038L254.597,40.155C254.597,36.312 255.585,33.196 257.611,30.806C259.635,28.417 262.493,27.171 266.233,27.223C269.661,27.223 272.309,28.261 274.231,30.287C276.257,32.572 277.295,35.533 277.139,38.545L277.139,42.649L262.753,42.649L262.701,42.804C262.909,44.103 263.375,45.142 264.311,45.973C265.193,46.804 266.337,47.219 267.843,47.219C270.231,47.271 272.621,46.752 274.803,45.661L276.673,50.44C275.373,51.323 273.919,51.998 272.413,52.465C270.647,52.985 268.777,53.244 266.803,53.244ZM302.071,42.233L302.227,42.233L304.927,27.69L312.147,27.69L306.225,52.777L299.577,52.777L295.475,39.48L295.319,39.48L291.215,52.777L284.567,52.777L278.645,27.69L285.865,27.69L288.619,42.337L288.775,42.337L292.877,27.69L297.811,27.69L302.071,42.233ZM328.041,45.713C328.041,45.09 327.677,44.57 327.001,44.051C325.807,43.376 324.509,42.96 323.159,42.752C320.769,42.389 318.483,41.506 316.509,40.052C315.003,38.857 314.225,37.039 314.277,35.117C314.277,32.936 315.315,30.858 317.081,29.508C318.951,28.002 321.495,27.223 324.613,27.223C327.989,27.223 330.637,27.95 332.611,29.456C334.481,30.754 335.571,32.936 335.467,35.221L335.415,35.377L327.833,35.377C327.833,34.39 327.573,33.663 327.053,33.144C326.535,32.624 325.755,32.365 324.665,32.365C323.833,32.365 323.159,32.572 322.587,33.04C322.067,33.455 321.755,34.079 321.755,34.754C321.807,35.429 322.119,36.052 322.691,36.416C323.885,37.091 325.235,37.507 326.587,37.662C329.027,38.026 331.365,38.961 333.391,40.363C334.897,41.61 335.727,43.48 335.571,45.453C335.571,47.687 334.585,49.557 332.559,51.011C330.221,52.569 327.417,53.348 324.613,53.192C321.185,53.192 318.483,52.309 316.509,50.595C314.537,48.881 313.549,46.908 313.653,44.778L313.705,44.622L320.821,44.622C320.873,45.817 321.185,46.648 321.911,47.167C322.587,47.687 323.573,47.946 324.821,47.946C325.859,47.946 326.689,47.739 327.209,47.323C327.781,47.063 328.041,46.44 328.041,45.713Z" clip-rule="evenodd" fill-rule="evenodd" fill="#404653"/>
</g>
</svg>
