<svg width="32" height="32" viewBox="0 0 32 32" fill="none" xmlns="http://www.w3.org/2000/svg" xmlns:xlink="http://www.w3.org/1999/xlink">
<path d="M2,14.5C1.172,14.5 0.5,15.172 0.5,16C0.5,16.828 1.172,17.5 2,17.5L2,14.5ZM30,16L31.061,17.061C31.646,16.475 31.646,15.525 31.061,14.939L30,16ZM17.061,0.939C16.475,0.354 15.525,0.354 14.939,0.939C14.354,1.525 14.354,2.475 14.939,3.061L17.061,0.939ZM14.939,28.939C14.354,29.525 14.354,30.475 14.939,31.061C15.525,31.646 16.475,31.646 17.061,31.061L14.939,28.939ZM2,17.5L30,17.5L30,14.5L2,14.5L2,17.5ZM14.939,3.061L28.939,17.061L31.061,14.939L17.061,0.939L14.939,3.061ZM28.939,14.939L14.939,28.939L17.061,31.061L31.061,17.061L28.939,14.939Z" fill="#FFFFFF"/>
</svg>
