<svg width="1162" height="724" viewBox="0 0 1162 724" fill="none" xmlns="http://www.w3.org/2000/svg" xmlns:xlink="http://www.w3.org/1999/xlink">
<path d="M968.461,148.113C821.289,58.211 613.969,54.049 448.965,114.861C442.859,117.098 436.797,119.463 430.805,121.881C424.235,124.546 417.729,127.329 411.299,130.206C302.44,178.898 215.808,256.547 169.815,346.752C168.248,349.844 166.754,352.922 165.337,356.028C159.7,368.246 155.199,380.472 151.791,392.678C127.858,478.464 157.961,563.498 226.736,637.79C272.013,686.696 345.957,716.34 422.683,722.93C443.297,724.696 463.691,724.114 483.937,722.368C499.199,721.058 514.427,719.04 529.583,716.864C532.199,716.502 534.801,716.126 537.405,715.748C543.279,714.896 549.139,714.03 555.001,713.164C556.121,713.006 557.227,712.834 558.325,712.686C559.989,712.448 561.637,712.192 563.279,711.964C563.803,711.892 564.305,711.828 564.797,711.75C570.735,710.912 576.667,710.098 582.595,709.35C584.269,709.126 585.935,708.928 587.601,708.73C596.193,707.682 604.803,706.798 613.405,706.15C614.047,706.086 614.667,706.034 615.299,705.996C622.125,705.512 628.937,705.184 635.779,705.034C637.759,704.988 639.731,704.968 641.703,704.946C645.503,704.93 649.277,704.99 653.069,705.104C657.699,705.234 662.345,705.486 667.003,705.86C667.067,705.872 667.141,705.858 667.205,705.872C668.395,705.98 669.573,706.072 670.751,706.164C674.511,706.486 678.271,706.806 682.053,707.118C685.611,707.426 689.167,707.736 692.725,708.044C695.223,708.27 697.741,708.486 700.239,708.712C750.681,713.142 802.239,717.652 852.325,714.838C964.797,708.55 1066.679,655.492 1120.007,578.898C1166.303,512.404 1172.151,433.944 1148.145,361.37C1120.601,278.216 1055.943,201.545 968.461,148.113Z" transform="rotate(360 652.833 399.047)" fill="#F7EFFF"/>
<path d="M496.124,158.709C495.817,156.22 495.612,153.73 495.612,151.173C495.612,117.107 523.233,89.487 557.298,89.487C566.505,89.487 575.201,91.567 583.044,95.181C595.592,69.777 621.713,52.25 651.959,52.25C694.448,52.25 728.888,86.69 728.888,129.179C728.888,129.383 728.888,129.554 728.888,129.724C759.236,133.612 782.698,159.459 782.698,190.831C782.698,224.896 755.076,252.518 721.01,252.518L500.761,253.71C474.47,253.71 453.124,232.398 453.124,206.073C453.124,181.317 472.015,160.994 496.124,158.675L496.124,158.709Z" fill="#FFFFFF"/>
<path d="M540.217,189.057C538.974,189.057 537.967,190.065 537.967,191.307C537.967,192.55 538.974,193.558 540.217,193.558L540.217,189.057ZM688.858,206.686C690.101,206.686 691.108,205.679 691.108,204.436C691.108,203.193 690.101,202.185 688.858,202.185L688.858,206.686ZM540.217,193.558C541.585,193.558 542.599,194.067 543.563,194.987C544.612,195.988 545.497,197.372 546.564,199.069C547.56,200.654 548.738,202.552 550.268,204.013C551.883,205.554 553.963,206.686 556.722,206.686L556.722,202.185C555.354,202.185 554.34,201.677 553.376,200.757C552.327,199.755 551.442,198.371 550.375,196.674C549.378,195.089 548.201,193.191 546.671,191.731C545.056,190.189 542.976,189.057 540.217,189.057L540.217,193.558ZM556.722,206.686C559.48,206.686 561.56,205.554 563.175,204.013C564.705,202.552 565.883,200.654 566.879,199.069C567.946,197.372 568.831,195.988 569.88,194.987C570.844,194.067 571.858,193.558 573.226,193.558L573.226,189.057C570.467,189.057 568.387,190.189 566.772,191.731C565.242,193.191 564.065,195.089 563.068,196.674C562.001,198.371 561.116,199.755 560.067,200.757C559.103,201.677 558.089,202.185 556.722,202.185L556.722,206.686ZM573.226,193.558C574.593,193.558 575.608,194.067 576.571,194.987C577.621,195.988 578.506,197.372 579.572,199.069C580.569,200.654 581.747,202.552 583.276,204.013C584.891,205.554 586.971,206.686 589.73,206.686L589.73,202.185C588.363,202.185 587.348,201.677 586.384,200.757C585.335,199.755 584.45,198.371 583.383,196.674C582.387,195.089 581.209,193.191 579.679,191.731C578.064,190.189 575.985,189.057 573.226,189.057L573.226,193.558ZM589.73,206.686C592.489,206.686 594.569,205.554 596.184,204.013C597.713,202.552 598.891,200.654 599.888,199.069C600.954,197.372 601.839,195.988 602.888,194.987C603.852,194.067 604.867,193.558 606.234,193.558L606.234,189.057C603.475,189.057 601.396,190.189 599.781,191.731C598.251,193.191 597.073,195.089 596.077,196.674C595.01,198.371 594.125,199.755 593.076,200.757C592.112,201.677 591.097,202.185 589.73,202.185L589.73,206.686ZM606.234,193.558C607.602,193.558 608.616,194.067 609.58,194.987C610.629,195.988 611.514,197.372 612.581,199.069C613.577,200.654 614.755,202.552 616.285,204.013C617.9,205.554 619.98,206.686 622.738,206.686L622.738,202.185C621.371,202.185 620.356,201.677 619.393,200.757C618.344,199.755 617.458,198.371 616.392,196.674C615.395,195.089 614.218,193.191 612.688,191.731C611.073,190.189 608.993,189.057 606.234,189.057L606.234,193.558ZM622.738,206.686C625.497,206.686 627.577,205.554 629.192,204.013C630.722,202.552 631.9,200.654 632.896,199.069C633.963,197.372 634.848,195.988 635.897,194.987C636.861,194.067 637.875,193.558 639.243,193.558L639.243,189.057C636.484,189.057 634.404,190.189 632.789,191.731C631.259,193.191 630.081,195.089 629.085,196.674C628.018,198.371 627.133,199.755 626.084,200.757C625.12,201.677 624.106,202.185 622.738,202.185L622.738,206.686ZM639.243,193.558C640.61,193.558 641.625,194.067 642.589,194.987C643.639,195.989 644.525,197.373 645.595,199.071C647.504,202.102 650.199,206.686 655.781,206.686L655.781,202.185C653.077,202.185 651.629,200.205 649.403,196.672C648.405,195.088 647.226,193.19 645.697,191.731C644.081,190.189 642.002,189.057 639.243,189.057L639.243,193.558ZM655.781,206.686C661.365,206.686 664.052,202.098 665.956,199.069C668.178,195.534 669.617,193.558 672.319,193.558L672.319,189.057C666.736,189.057 664.049,193.645 662.145,196.674C659.923,200.209 658.483,202.185 655.781,202.185L655.781,206.686ZM672.319,193.558C675.022,193.558 676.461,195.534 678.683,199.069C680.587,202.098 683.274,206.686 688.858,206.686L688.858,202.185C686.155,202.185 684.716,200.209 682.494,196.674C680.59,193.645 677.903,189.057 672.319,189.057L672.319,193.558Z" fill="#43434D"/>
<path d="M190.79,433.976C186.562,447.868 183.131,450.965 167.828,454.799C183.146,458.633 186.562,461.745 190.79,475.622C195.018,461.731 198.449,458.633 213.752,454.799C198.434,450.965 195.018,447.854 190.79,433.976Z" fill="#FFFFFF"/>
<path d="M886.287,0C879.48,22.596 873.955,27.635 849.314,33.871C873.979,40.108 879.48,45.169 886.287,67.743C893.095,45.147 898.62,40.108 923.26,33.871C898.595,27.635 893.095,22.573 886.287,0Z" fill="#FFE270"/>
<path d="M947.556,80.444C936.474,117.154 927.477,125.355 887.344,135.485C927.503,145.616 936.474,153.84 947.556,190.526C958.639,153.816 967.636,145.616 1007.769,135.485C967.61,125.355 958.639,117.13 947.556,80.444Z" fill="#FFE270"/>
<path d="M464.225,351.029C468.7,351.029 472.328,347.739 472.328,343.68C472.328,339.622 468.7,336.332 464.225,336.332C459.75,336.332 456.122,339.622 456.122,343.68C456.122,347.739 459.75,351.029 464.225,351.029Z" fill="#FFFFFF"/>
<path d="M737.1,714.21L139.496,714.21C116.527,714.21 97.886,697.303 97.886,676.471L778.676,676.471C761.806,705.803 737.066,714.21 737.066,714.21L737.1,714.21Z" fill="#43434D"/>
<path d="M301.062,712.013C300.582,712.132 300.291,712.617 300.41,713.097C300.529,713.576 301.015,713.868 301.494,713.748L301.062,712.013ZM332.567,679.8C332.613,679.308 332.252,678.872 331.76,678.825C331.268,678.779 330.832,679.14 330.786,679.632L332.567,679.8ZM301.494,713.748C318.304,709.559 331.027,696.178 332.567,679.8L330.786,679.632C329.327,695.151 317.24,707.98 301.062,712.013L301.494,713.748Z" fill="#FFFFFF"/>
<path d="M939.93,384.79L495.85,384.79L334.624,676.502L778.67,676.502L939.93,384.79Z" fill="#43434D"/>
<path d="M1003.555,626.307L693.813,626.307L693.813,666.827L1003.555,666.827L1003.555,626.307Z" fill="#78CD72"/>
<path d="M967.79,657.678C974.547,657.678 980.024,652.71 980.024,646.582C980.024,640.454 974.547,635.486 967.79,635.486C961.033,635.486 955.556,640.454 955.556,646.582C955.556,652.71 961.033,657.678 967.79,657.678Z" fill="#FFFFFF"/>
<path d="M1088.056,558.557L785.336,558.557L785.336,626.307L1088.056,626.307L1088.056,558.557Z" fill="#E8C245"/>
<path d="M1076.026,578.214L1077.236,578.214L1077.236,577.004L1076.026,577.004L1076.026,578.214ZM1076.026,606.649L1076.026,607.859L1077.236,607.859L1077.236,606.649L1076.026,606.649ZM1062.974,618.487L1062.974,619.697L1064.184,619.697L1064.184,618.487L1062.974,618.487ZM809.224,618.487L808.014,618.487L808.014,619.697L809.224,619.697L809.224,618.487ZM796.172,606.649L794.962,606.649L794.962,607.859L796.172,607.859L796.172,606.649ZM796.172,578.214L796.172,577.004L794.962,577.004L794.962,578.214L796.172,578.214ZM809.224,566.376L809.224,565.166L808.014,565.166L808.014,566.376L809.224,566.376ZM1062.974,566.376L1064.184,566.376L1064.184,565.166L1062.974,565.166L1062.974,566.376ZM1074.816,578.214L1074.816,606.649L1077.236,606.649L1077.236,578.214L1074.816,578.214ZM1076.026,605.439C1068.246,605.439 1061.764,611.158 1061.764,618.487L1064.184,618.487C1064.184,612.711 1069.356,607.859 1076.026,607.859L1076.026,605.439ZM1062.974,617.277L809.224,617.277L809.224,619.697L1062.974,619.697L1062.974,617.277ZM810.434,618.487C810.434,611.158 803.951,605.439 796.172,605.439L796.172,607.859C802.842,607.859 808.014,612.711 808.014,618.487L810.434,618.487ZM797.382,606.649L797.382,578.214L794.962,578.214L794.962,606.649L797.382,606.649ZM796.172,579.424C803.951,579.424 810.434,573.705 810.434,566.376L808.014,566.376C808.014,572.152 802.842,577.004 796.172,577.004L796.172,579.424ZM809.224,567.586L1062.974,567.586L1062.974,565.166L809.224,565.166L809.224,567.586ZM1061.764,566.376C1061.764,573.705 1068.246,579.424 1076.026,579.424L1076.026,577.004C1069.356,577.004 1064.184,572.152 1064.184,566.376L1061.764,566.376Z" fill="#FFFFFF"/>
<path d="M1120.801,435.387L814.775,435.387L814.775,511.205L1120.801,511.205L1120.801,435.387Z" fill="#857FF0"/>
<line x1="1039.157" y1="443.949" x2="1039.157" y2="502.675" stroke="#FFFFFF" stroke-width="1.21" stroke-miterlimit="10"/>
<line x1="1058.992" y1="443.949" x2="1058.992" y2="502.675" stroke="#FFFFFF" stroke-width="1.21" stroke-miterlimit="10"/>
<line x1="1079.894" y1="443.949" x2="1079.894" y2="502.674" stroke="#FFFFFF" stroke-width="1.21" stroke-miterlimit="10"/>
<line x1="1099.721" y1="443.949" x2="1099.721" y2="502.674" stroke="#FFFFFF" stroke-width="1.21" stroke-miterlimit="10"/>
<path d="M1036.987,518.035C1035.385,522.332 1034.431,528.297 1034.431,534.911C1034.431,541.526 1035.419,547.553 1037.055,551.849C1037.975,554.383 1039.135,556.362 1040.395,557.474L1040.395,558.587L736.345,558.587L736.345,511.267L1040.395,511.267L1040.395,512.379C1039.099,513.523 1037.907,515.501 1036.987,518.066L1036.987,518.035Z" fill="#E06F5B"/>
<path d="M1037.03,551.849L952.754,551.849L952.754,518.035L1036.996,518.035C1035.394,522.331 1034.44,528.296 1034.44,534.911C1034.44,541.525 1035.428,547.552 1037.064,551.849L1037.03,551.849Z" fill="#FFFFFF"/>
<path d="M1038.106,518.514C1038.37,517.9 1038.087,517.188 1037.473,516.923C1036.859,516.659 1036.147,516.942 1035.883,517.556L1038.106,518.514ZM1035.954,552.334C1036.222,552.946 1036.936,553.225 1037.548,552.957C1038.16,552.689 1038.439,551.976 1038.171,551.363L1035.954,552.334ZM1036.994,518.035C1035.883,517.556 1035.883,517.557 1035.883,517.557C1035.883,517.557 1035.882,517.558 1035.882,517.558C1035.882,517.559 1035.882,517.559 1035.881,517.56C1035.88,517.562 1035.88,517.564 1035.879,517.566C1035.877,517.571 1035.874,517.578 1035.871,517.585C1035.864,517.601 1035.855,517.622 1035.844,517.649C1035.822,517.703 1035.792,517.781 1035.754,517.881C1035.677,518.081 1035.571,518.373 1035.446,518.754C1035.194,519.517 1034.864,520.639 1034.536,522.105C1033.878,525.037 1033.228,529.345 1033.228,534.911L1035.649,534.911C1035.649,529.535 1036.277,525.405 1036.897,522.634C1037.208,521.249 1037.517,520.203 1037.744,519.512C1037.858,519.166 1037.952,518.909 1038.016,518.742C1038.047,518.658 1038.072,518.597 1038.087,518.559C1038.095,518.54 1038.1,518.527 1038.104,518.519C1038.105,518.515 1038.106,518.513 1038.107,518.512C1038.107,518.512 1038.107,518.512 1038.107,518.512C1038.107,518.512 1038.107,518.512 1038.106,518.513C1038.106,518.513 1038.106,518.513 1038.106,518.513C1038.106,518.513 1038.106,518.514 1036.994,518.035ZM1033.228,534.911C1033.228,540.479 1033.896,544.804 1034.571,547.753C1034.908,549.227 1035.247,550.357 1035.505,551.126C1035.634,551.51 1035.743,551.804 1035.821,552.006C1035.86,552.107 1035.892,552.185 1035.914,552.24C1035.926,552.267 1035.935,552.289 1035.941,552.304C1035.945,552.312 1035.947,552.319 1035.95,552.324C1035.951,552.326 1035.951,552.328 1035.952,552.33C1035.953,552.331 1035.953,552.331 1035.953,552.332C1035.953,552.332 1035.954,552.333 1035.954,552.333C1035.954,552.333 1035.954,552.334 1037.063,551.849C1038.171,551.363 1038.171,551.364 1038.172,551.364C1038.172,551.364 1038.172,551.364 1038.172,551.365C1038.172,551.365 1038.172,551.365 1038.172,551.365C1038.172,551.365 1038.172,551.365 1038.172,551.365C1038.171,551.364 1038.17,551.361 1038.169,551.358C1038.166,551.35 1038.16,551.336 1038.152,551.317C1038.136,551.278 1038.111,551.217 1038.078,551.133C1038.013,550.964 1037.917,550.704 1037.8,550.356C1037.566,549.658 1037.249,548.605 1036.93,547.213C1036.293,544.428 1035.649,540.284 1035.649,534.911L1033.228,534.911Z" fill="#121826"/>
<path d="M558.08,673.69C559.681,677.986 560.636,683.952 560.636,690.566C560.636,697.18 559.647,703.207 558.012,707.504C557.091,710.038 555.933,712.016 554.672,713.129L554.672,714.242L1036.988,714.242L1036.988,666.921L554.672,666.921L554.672,668.034C555.967,669.177 557.16,671.156 558.08,673.721L558.08,673.69Z" fill="#857FF0"/>
<path d="M558.056,707.503L642.333,707.503L642.333,673.689L558.09,673.689C559.692,677.985 560.646,683.951 560.646,690.565C560.646,697.179 559.658,703.207 558.022,707.503L558.056,707.503Z" fill="#FFFFFF"/>
<path d="M559.202,673.21C558.938,672.597 558.226,672.313 557.612,672.578C556.998,672.842 556.715,673.554 556.979,674.168L559.202,673.21ZM556.914,707.018C556.646,707.63 556.925,708.343 557.537,708.611C558.149,708.879 558.863,708.6 559.131,707.988L556.914,707.018ZM558.09,673.689C556.979,674.168 556.979,674.168 556.979,674.167C556.979,674.167 556.979,674.167 556.978,674.167C556.978,674.166 556.978,674.166 556.978,674.166C556.978,674.166 556.978,674.166 556.978,674.166C556.979,674.167 556.98,674.17 556.981,674.173C556.984,674.181 556.99,674.194 556.998,674.213C557.013,674.252 557.037,674.312 557.069,674.396C557.133,674.563 557.226,674.82 557.34,675.166C557.568,675.858 557.877,676.903 558.187,678.289C558.808,681.059 559.436,685.189 559.436,690.565L561.856,690.565C561.856,684.999 561.206,680.692 560.549,677.759C560.221,676.293 559.891,675.172 559.639,674.409C559.514,674.027 559.408,673.735 559.331,673.535C559.293,673.435 559.263,673.358 559.241,673.303C559.23,673.276 559.221,673.255 559.214,673.24C559.211,673.232 559.208,673.225 559.206,673.221C559.205,673.218 559.204,673.216 559.204,673.214C559.203,673.214 559.203,673.213 559.203,673.212C559.203,673.212 559.202,673.211 559.202,673.211C559.202,673.211 559.202,673.21 558.09,673.689ZM559.436,690.565C559.436,695.938 558.792,700.082 558.155,702.867C557.836,704.26 557.519,705.313 557.285,706.01C557.168,706.358 557.072,706.618 557.006,706.787C556.974,706.871 556.949,706.933 556.933,706.971C556.925,706.99 556.919,707.004 556.916,707.012C556.914,707.016 556.913,707.018 556.913,707.019C556.913,707.019 556.913,707.02 556.913,707.019C556.913,707.019 556.913,707.019 556.913,707.019C556.913,707.019 556.913,707.018 556.913,707.018C556.913,707.018 556.914,707.018 558.022,707.503C559.131,707.988 559.131,707.988 559.131,707.987C559.131,707.987 559.131,707.987 559.132,707.986C559.132,707.986 559.132,707.985 559.133,707.984C559.133,707.982 559.134,707.98 559.135,707.978C559.137,707.973 559.14,707.966 559.143,707.959C559.15,707.943 559.159,707.922 559.17,707.894C559.193,707.84 559.224,707.762 559.264,707.661C559.342,707.459 559.451,707.164 559.58,706.78C559.838,706.011 560.177,704.881 560.514,703.407C561.189,700.458 561.856,696.133 561.856,690.565L559.436,690.565Z" fill="#121826"/>
<line x1="658.347" y1="670.167" x2="658.347" y2="711.46" stroke="#FFFFFF" stroke-width="1.21" stroke-miterlimit="10"/>
<line x1="678.182" y1="670.167" x2="678.182" y2="711.46" stroke="#FFFFFF" stroke-width="1.21" stroke-miterlimit="10"/>
<line x1="69.582" y1="712.687" x2="1109.158" y2="712.687" fill="#FFFFFF" stroke="#121826" stroke-width="2.483" stroke-miterlimit="10"/>
<path d="M637.016,499.713L641.096,499.713L641.096,555.039L643.815,555.039L643.815,510.18L647.895,510.18L647.895,555.039L677.813,555.039L677.813,559.525L637.016,559.525L637.016,499.713Z" fill="#F6F6F6"/>
<path d="M634.296,522.142L630.216,522.142L630.216,567.001L634.296,567.001L634.296,522.142Z" fill="#F6F6F6"/>
<path d="M637.016,567.001L637.016,562.516L671.014,562.516L671.014,567.001L637.016,567.001Z" fill="#F6F6F6"/>
<path d="M650.615,547.563L650.615,552.048L684.613,552.048L684.613,547.563L650.615,547.563Z" fill="#F6F6F6"/>
<path d="M0.923,153.633L119.02,140.934L33.305,237.959L32.159,183.239L0.923,153.633Z" transform="rotate(360 59.971 189.446)" fill="#857FF0"/>
<path d="M94.569,170.152L124.497,136.279L6.41,148.979L37.646,178.584L38.793,233.304L81.645,184.787Z" transform="rotate(360 65.453 184.792)" fill="#857FF0" stroke="#121826" stroke-width="1.824" stroke-miterlimit="3.999327" stroke-linecap="round" stroke-linejoin="round"/>
<path d="M94.025,150.228C94.94,149.806 95.34,148.722 94.918,147.808C94.496,146.893 93.413,146.493 92.498,146.915L94.025,150.228ZM27.398,176.928C26.483,177.349 26.083,178.433 26.505,179.348C26.927,180.263 28.01,180.662 28.925,180.24L27.398,176.928ZM92.498,146.915L27.398,176.928L28.925,180.24L94.025,150.228L92.498,146.915Z" transform="rotate(360 60.712 163.578)" fill="#121826"/>
<path d="M425.007,231.292C424.3,230.574 423.146,230.564 422.427,231.27C421.709,231.976 421.699,233.131 422.405,233.849L425.007,231.292ZM428.076,239.607C428.784,240.324 429.939,240.33 430.655,239.622C431.372,238.914 431.378,237.759 430.67,237.043L428.076,239.607ZM422.405,233.849C424.287,235.764 426.181,237.69 428.076,239.607L430.67,237.043C428.78,235.13 426.888,233.207 425.007,231.292L422.405,233.849Z" transform="rotate(360 426.539 235.448)" fill="#121826"/>
<path d="M134.4,248.207C133.677,247.506 132.522,247.525 131.821,248.248C131.121,248.972 131.139,250.127 131.863,250.827L134.4,248.207ZM181.835,287.117L180.968,288.722L180.968,288.722L181.835,287.117ZM302.7,229.77L300.989,230.401L300.989,230.401L302.7,229.77ZM253.435,188.677L254.12,186.986L254.12,186.986L253.435,188.677ZM213.471,187.618L212.399,186.142L212.398,186.143L213.471,187.618ZM227.477,239.415L228.454,237.874L228.453,237.874L227.477,239.415ZM331.568,251.544L331.111,249.778L331.11,249.778L331.568,251.544ZM413.466,213.406C414.294,212.831 414.5,211.695 413.924,210.867C413.35,210.04 412.214,209.834 411.386,210.408L413.466,213.406ZM131.863,250.827C146.67,265.168 162.461,278.726 180.968,288.722L182.702,285.513C164.63,275.752 149.12,262.464 134.4,248.207L131.863,250.827ZM180.968,288.722C206.681,302.61 239.029,308.88 266.8,298.168L265.487,294.765C239.028,304.971 207.823,299.081 182.702,285.513L180.968,288.722ZM266.8,298.168C280.756,292.785 292.622,282.344 299.777,269.881C306.936,257.413 309.445,242.788 304.412,229.139L300.989,230.401C305.571,242.824 303.359,256.318 296.614,268.065C289.866,279.818 278.646,289.689 265.487,294.765L266.8,298.168ZM304.412,229.139C296.712,208.245 274.921,195.417 254.12,186.986L252.75,190.367C273.459,198.761 293.872,211.088 300.989,230.401L304.412,229.139ZM254.12,186.986C247.608,184.348 240.198,181.997 232.945,181.354C225.685,180.711 218.419,181.768 212.399,186.142L214.543,189.093C219.609,185.412 225.889,184.391 232.623,184.988C239.362,185.585 246.391,187.791 252.75,190.367L254.12,186.986ZM212.398,186.143C202.821,193.112 200.624,206.309 204.504,216.72L207.922,215.446C204.469,206.18 206.599,194.874 214.544,189.092L212.398,186.143ZM204.504,216.72C208.374,227.104 217.17,235.043 226.501,240.955L228.453,237.874C219.397,232.135 211.385,224.737 207.922,215.446L204.504,216.72ZM226.5,240.955C256.961,260.273 296.918,262.409 332.025,253.31L331.11,249.778C296.672,258.705 257.826,256.502 228.454,237.874L226.5,240.955ZM332.024,253.31C361.8,245.606 388.674,230.607 413.466,213.406L411.386,210.408C386.772,227.487 360.302,242.226 331.111,249.778L332.024,253.31Z" transform="rotate(360 272.779 242.378)" fill="#121826"/>
<path d="M118.92,205.803C118.102,206.392 117.917,207.531 118.505,208.349C119.094,209.166 120.234,209.352 121.051,208.763L118.92,205.803ZM127.658,203.931C128.467,203.331 128.637,202.189 128.037,201.38C127.438,200.571 126.295,200.401 125.486,201.001L127.658,203.931ZM121.051,208.763C123.266,207.169 125.468,205.554 127.658,203.931L125.486,201.001C123.306,202.616 121.118,204.22 118.92,205.803L121.051,208.763Z" transform="rotate(360 123.279 204.875)" fill="#121826"/>
<path d="M981.316,316.632C981.316,312.716 977.948,309.59 973.871,309.59L973.871,310.68C977.408,310.68 980.226,313.379 980.226,316.632L981.316,316.632ZM973.871,309.59C969.795,309.59 966.427,312.716 966.427,316.632L967.517,316.632C967.517,313.379 970.335,310.68 973.871,310.68L973.871,309.59ZM966.427,316.632C966.427,320.548 969.795,323.674 973.871,323.674L973.871,322.584C970.335,322.584 967.517,319.885 967.517,316.632L966.427,316.632ZM973.871,323.674C977.948,323.674 981.316,320.548 981.316,316.632L980.226,316.632C980.226,319.885 977.408,322.584 973.871,322.584L973.871,323.674Z" fill="#121826"/>
<path d="M318.736,502.395C318.736,498.479 315.368,495.353 311.292,495.353L311.292,496.443C314.828,496.443 317.646,499.142 317.646,502.395L318.736,502.395ZM311.292,495.353C307.215,495.353 303.847,498.479 303.847,502.395L304.937,502.395C304.937,499.142 307.755,496.443 311.292,496.443L311.292,495.353ZM303.847,502.395C303.847,506.311 307.215,509.437 311.292,509.437L311.292,508.347C307.755,508.347 304.937,505.648 304.937,502.395L303.847,502.395ZM311.292,509.437C315.368,509.437 318.736,506.311 318.736,502.395L317.646,502.395C317.646,505.648 314.828,508.347 311.292,508.347L311.292,509.437Z" fill="#121826"/>
<path d="M261.396,533.32C261.019,533.32 260.714,533.626 260.714,534.003C260.714,534.38 261.019,534.685 261.396,534.685L261.396,533.32ZM312.594,538.931C312.971,538.931 313.276,538.626 313.276,538.249C313.276,537.872 312.971,537.566 312.594,537.566L312.594,538.931ZM261.396,534.685C262.4,534.685 262.921,535.383 263.672,536.506C264.342,537.506 265.243,538.931 267.082,538.931L267.082,537.566C266.078,537.566 265.558,536.868 264.806,535.746C264.136,534.745 263.235,533.32 261.396,533.32L261.396,534.685ZM267.082,538.931C268.921,538.931 269.822,537.506 270.492,536.506C271.244,535.383 271.764,534.685 272.768,534.685L272.768,533.32C270.929,533.32 270.028,534.745 269.358,535.746C268.606,536.868 268.086,537.566 267.082,537.566L267.082,538.931ZM272.768,534.685C273.772,534.685 274.292,535.383 275.044,536.506C275.714,537.506 276.615,538.931 278.454,538.931L278.454,537.566C277.45,537.566 276.93,536.868 276.178,535.746C275.508,534.745 274.607,533.32 272.768,533.32L272.768,534.685ZM278.454,538.931C280.293,538.931 281.194,537.506 281.864,536.506C282.616,535.383 283.136,534.685 284.14,534.685L284.14,533.32C282.301,533.32 281.4,534.745 280.73,535.746C279.978,536.868 279.458,537.566 278.454,537.566L278.454,538.931ZM284.14,534.685C285.144,534.685 285.664,535.383 286.416,536.506C287.086,537.506 287.987,538.931 289.826,538.931L289.826,537.566C288.822,537.566 288.302,536.868 287.55,535.746C286.88,534.745 285.979,533.32 284.14,533.32L284.14,534.685ZM289.826,538.931C291.665,538.931 292.566,537.506 293.236,536.506C293.988,535.383 294.508,534.685 295.512,534.685L295.512,533.32C293.673,533.32 292.772,534.745 292.102,535.746C291.35,536.868 290.83,537.566 289.826,537.566L289.826,538.931ZM295.512,534.685C296.516,534.685 297.036,535.383 297.788,536.506C298.458,537.506 299.359,538.931 301.198,538.931L301.198,537.566C300.194,537.566 299.674,536.868 298.922,535.746C298.252,534.745 297.351,533.32 295.512,533.32L295.512,534.685ZM301.198,538.931C303.037,538.931 303.938,537.506 304.609,536.506C305.361,535.385 305.885,534.685 306.896,534.685L306.896,533.32C305.052,533.32 304.148,534.743 303.476,535.745C302.722,536.868 302.202,537.566 301.198,537.566L301.198,538.931ZM306.896,534.685C307.906,534.685 308.427,535.384 309.178,536.506C309.848,537.507 310.749,538.931 312.594,538.931L312.594,537.566C311.584,537.566 311.063,536.867 310.312,535.746C309.641,534.744 308.741,533.32 306.896,533.32L306.896,534.685Z" fill="#43434D"/>
<path d="M1050.415,383.281C1050.038,383.281 1049.732,383.586 1049.732,383.963C1049.732,384.34 1050.038,384.646 1050.415,384.646L1050.415,383.281ZM1101.612,388.892C1101.989,388.892 1102.295,388.586 1102.295,388.209C1102.295,387.832 1101.989,387.526 1101.612,387.526L1101.612,388.892ZM1050.415,384.646C1051.418,384.646 1051.939,385.344 1052.69,386.466C1053.36,387.467 1054.261,388.892 1056.101,388.892L1056.101,387.526C1055.097,387.526 1054.576,386.829 1053.825,385.706C1053.155,384.706 1052.254,383.281 1050.415,383.281L1050.415,384.646ZM1056.101,388.892C1057.94,388.892 1058.841,387.467 1059.511,386.466C1060.262,385.344 1060.783,384.646 1061.786,384.646L1061.786,383.281C1059.947,383.281 1059.046,384.706 1058.376,385.706C1057.625,386.829 1057.104,387.526 1056.101,387.526L1056.101,388.892ZM1061.786,384.646C1062.79,384.646 1063.311,385.344 1064.062,386.466C1064.732,387.467 1065.633,388.892 1067.472,388.892L1067.472,387.526C1066.469,387.526 1065.948,386.829 1065.197,385.706C1064.527,384.706 1063.626,383.281 1061.786,383.281L1061.786,384.646ZM1067.472,388.892C1069.312,388.892 1070.213,387.467 1070.883,386.466C1071.634,385.344 1072.155,384.646 1073.158,384.646L1073.158,383.281C1071.319,383.281 1070.418,384.706 1069.748,385.706C1068.997,386.829 1068.476,387.526 1067.472,387.526L1067.472,388.892ZM1073.158,384.646C1074.162,384.646 1074.683,385.344 1075.434,386.466C1076.104,387.467 1077.005,388.892 1078.844,388.892L1078.844,387.526C1077.841,387.526 1077.32,386.829 1076.569,385.706C1075.899,384.706 1074.998,383.281 1073.158,383.281L1073.158,384.646ZM1078.844,388.892C1080.684,388.892 1081.585,387.467 1082.255,386.466C1083.006,385.344 1083.527,384.646 1084.53,384.646L1084.53,383.281C1082.691,383.281 1081.79,384.706 1081.12,385.706C1080.369,386.829 1079.848,387.526 1078.844,387.526L1078.844,388.892ZM1084.53,384.646C1085.534,384.646 1086.055,385.344 1086.806,386.466C1087.476,387.467 1088.377,388.892 1090.216,388.892L1090.216,387.526C1089.213,387.526 1088.692,386.829 1087.941,385.706C1087.271,384.706 1086.37,383.281 1084.53,383.281L1084.53,384.646ZM1090.216,388.892C1092.055,388.892 1092.957,387.467 1093.628,386.467C1094.38,385.346 1094.903,384.646 1095.914,384.646L1095.914,383.281C1094.07,383.281 1093.166,384.704 1092.494,385.706C1091.741,386.829 1091.22,387.526 1090.216,387.526L1090.216,388.892ZM1095.914,384.646C1096.924,384.646 1097.445,385.345 1098.196,386.466C1098.867,387.468 1099.767,388.892 1101.612,388.892L1101.612,387.526C1100.602,387.526 1100.081,386.828 1099.33,385.706C1098.66,384.705 1097.759,383.281 1095.914,383.281L1095.914,384.646Z" fill="#43434D"/>
<path d="M1045.354,402.334C1044.977,402.334 1044.671,402.639 1044.671,403.016C1044.671,403.393 1044.977,403.699 1045.354,403.699L1045.354,402.334ZM1096.551,407.945C1096.928,407.945 1097.234,407.639 1097.234,407.262C1097.234,406.885 1096.928,406.579 1096.551,406.579L1096.551,407.945ZM1045.354,403.699C1046.358,403.699 1046.878,404.397 1047.63,405.519C1048.3,406.519 1049.201,407.945 1051.04,407.945L1051.04,406.579C1050.036,406.579 1049.516,405.882 1048.764,404.759C1048.094,403.759 1047.193,402.334 1045.354,402.334L1045.354,403.699ZM1051.04,407.945C1052.879,407.945 1053.78,406.519 1054.45,405.519C1055.202,404.397 1055.722,403.699 1056.726,403.699L1056.726,402.334C1054.887,402.334 1053.986,403.759 1053.316,404.759C1052.564,405.882 1052.044,406.579 1051.04,406.579L1051.04,407.945ZM1056.726,403.699C1057.73,403.699 1058.25,404.397 1059.002,405.519C1059.672,406.519 1060.573,407.945 1062.412,407.945L1062.412,406.579C1061.408,406.579 1060.888,405.882 1060.136,404.759C1059.466,403.759 1058.565,402.334 1056.726,402.334L1056.726,403.699ZM1062.412,407.945C1064.251,407.945 1065.152,406.519 1065.822,405.519C1066.574,404.397 1067.094,403.699 1068.098,403.699L1068.098,402.334C1066.259,402.334 1065.358,403.759 1064.688,404.759C1063.936,405.882 1063.416,406.579 1062.412,406.579L1062.412,407.945ZM1068.098,403.699C1069.102,403.699 1069.622,404.397 1070.374,405.519C1071.044,406.519 1071.945,407.945 1073.784,407.945L1073.784,406.579C1072.78,406.579 1072.26,405.882 1071.508,404.759C1070.838,403.759 1069.937,402.334 1068.098,402.334L1068.098,403.699ZM1073.784,407.945C1075.623,407.945 1076.524,406.519 1077.194,405.519C1077.945,404.397 1078.466,403.699 1079.47,403.699L1079.47,402.334C1077.631,402.334 1076.73,403.759 1076.06,404.759C1075.308,405.882 1074.788,406.579 1073.784,406.579L1073.784,407.945ZM1079.47,403.699C1080.473,403.699 1080.994,404.397 1081.745,405.519C1082.415,406.519 1083.316,407.945 1085.156,407.945L1085.156,406.579C1084.152,406.579 1083.631,405.882 1082.88,404.759C1082.21,403.759 1081.309,402.334 1079.47,402.334L1079.47,403.699ZM1085.156,407.945C1086.995,407.945 1087.896,406.519 1088.567,405.519C1089.319,404.399 1089.843,403.699 1090.854,403.699L1090.854,402.334C1089.009,402.334 1088.106,403.757 1087.433,404.759C1086.68,405.881 1086.16,406.579 1085.156,406.579L1085.156,407.945ZM1090.854,403.699C1091.864,403.699 1092.384,404.398 1093.135,405.519C1093.806,406.52 1094.707,407.945 1096.551,407.945L1096.551,406.579C1095.541,406.579 1095.021,405.881 1094.27,404.759C1093.599,403.758 1092.698,402.334 1090.854,402.334L1090.854,403.699Z" fill="#43434D"/>
</svg>
