<svg width="324" height="72" viewBox="0 0 324 72" fill="none" xmlns="http://www.w3.org/2000/svg" xmlns:xlink="http://www.w3.org/1999/xlink">
<g opacity="0.8">
<path d="M311.875,41.512C311.653,36.882 308.787,32.473 301.513,32.473C295.119,32.473 291.591,37.323 291.151,41.512L311.875,41.512ZM323.559,56.503C321.133,64.44 313.859,71.054 302.615,71.054C290.049,71.054 278.805,62.015 278.805,46.582C278.805,32.032 289.607,22.331 301.291,22.331C315.401,22.331 323.999,31.37 323.999,46.141C323.999,47.905 323.779,49.889 323.779,49.889L290.931,49.889C291.151,56.062 296.441,60.251 302.395,60.251C308.127,60.251 311.433,57.385 312.757,53.196L323.559,56.503ZM243.529,43.275C243.529,37.984 246.617,33.795 252.129,33.795C258.081,33.795 260.727,37.764 260.727,42.834L260.727,69.511L273.073,69.511L273.073,40.63C273.073,30.488 267.781,22.331 256.537,22.331C251.687,22.331 246.175,24.536 243.309,29.166L243.309,23.433L231.183,23.433L231.183,69.29L243.529,69.29L243.529,43.275ZM211.121,23.654L223.467,23.654L223.467,69.511L211.121,69.511L211.121,23.654ZM217.295,0.946C221.483,0.946 225.011,4.473 225.011,8.662C225.011,12.851 221.703,16.158 217.295,16.158C213.105,16.158 209.579,12.631 209.579,8.662C209.579,4.473 213.105,0.946 217.295,0.946L217.295,0.946ZM148.289,43.275C148.289,37.984 151.375,33.795 156.887,33.795C162.84,33.795 165.485,37.764 165.485,42.834L165.485,69.511L177.831,69.511L177.831,40.63C177.831,30.488 172.54,22.331 161.296,22.331C156.446,22.331 150.934,24.536 148.068,29.166L148.068,23.433L135.943,23.433L135.943,69.29L148.289,69.29L148.289,43.275ZM115.439,23.654L127.786,23.654L127.786,69.511L115.439,69.511L115.439,23.654ZM121.392,0.946C125.581,0.946 129.108,4.473 129.108,8.662C129.108,12.851 125.801,16.158 121.392,16.158C117.203,16.158 113.676,12.631 113.676,8.662C113.896,4.473 117.203,0.946 121.392,0.946L121.392,0.946ZM86.118,61.795C82.149,61.795 80.165,59.149 80.165,56.503C80.165,52.976 82.59,51.212 85.897,50.771L96.259,49.228L96.259,51.212C96.259,59.149 91.409,61.795 86.118,61.795ZM67.819,57.165C67.819,64.44 73.771,71.054 83.692,71.054C90.527,71.054 94.936,67.968 97.141,64.22C97.141,65.983 97.361,68.408 97.582,69.731L109.046,69.731C108.825,68.188 108.385,64.881 108.385,62.456L108.385,39.748C108.385,30.488 102.873,22.331 88.322,22.331C75.976,22.331 69.362,30.268 68.701,37.543L79.724,39.968C80.165,36 83.031,32.473 88.543,32.473C93.834,32.473 96.259,35.118 96.259,38.425C96.259,39.968 95.377,41.291 92.731,41.732L81.488,43.496C73.771,44.378 67.819,49.008 67.819,57.165L67.819,57.165ZM64.071,36C62.748,35.78 61.425,35.559 60.323,35.559C53.93,35.559 48.418,38.646 48.418,48.567L48.418,69.511L36.072,69.511L36.072,23.654L48.197,23.654L48.197,30.488C51.063,24.315 57.237,23.213 61.205,23.213C62.307,23.213 63.189,23.213 64.071,23.433L64.071,36ZM29.237,24.315L29.237,35.118L14.907,35.118C16.23,34.457 17.332,33.354 18.435,32.473C20.639,30.268 22.182,27.622 23.285,24.315L29.237,24.315ZM3.223,35.118L-0.305,35.118L-0.305,24.315L19.757,24.315C18.435,27.622 16.45,30.268 13.584,32.252C10.939,34.016 7.411,34.898 3.223,35.118L3.223,35.118ZM25.489,59.369C27.033,59.369 28.576,59.149 29.237,58.928L29.237,69.29C28.135,69.731 25.93,70.393 22.403,70.393C13.584,70.393 8.073,65.102 8.073,56.283L8.073,37.984L20.198,37.984L20.198,54.299C20.198,58.047 21.962,59.369 25.489,59.369L25.489,59.369ZM20.198,21.449L20.198,10.646L9.175,10.646L9.175,17.04C9.175,18.804 8.734,20.347 7.852,21.449L20.198,21.449ZM204.287,59.369L202.083,59.369C198.555,59.369 196.791,58.047 196.791,54.078L196.791,2.93L184.666,2.93L184.666,56.283C184.666,65.102 190.177,70.393 198.996,70.393C201.201,70.393 202.965,70.172 204.287,69.731L204.287,59.369Z" fill="#404653"/>
</g>
</svg>
