<svg width="40" height="40" viewBox="0 0 40 40" fill="none" xmlns="http://www.w3.org/2000/svg" xmlns:xlink="http://www.w3.org/1999/xlink">
<path d="M20,0C8.954,0 0,8.954 0,20C0,29.379 6.458,37.25 15.169,39.411L15.169,26.112L11.045,26.112L11.045,20L15.169,20L15.169,17.366C15.169,10.559 18.25,7.404 24.933,7.404C26.2,7.404 28.386,7.653 29.281,7.901L29.281,13.441C28.809,13.391 27.989,13.366 26.97,13.366C23.691,13.366 22.424,14.609 22.424,17.838L22.424,20L28.957,20L27.834,26.112L22.424,26.112L22.424,39.854C32.327,38.658 40.001,30.226 40.001,20C40,8.954 31.046,0 20,0Z" fill="#808187"/>
</svg>
