<svg width="292" height="72" viewBox="0 0 292 72" fill="none" xmlns="http://www.w3.org/2000/svg" xmlns:xlink="http://www.w3.org/1999/xlink">
<g opacity="0.8">
<path d="M-0.893,15.3C-0.893,15.3 6.335,44.921 7.489,49.729C8.835,55.34 11.262,57.406 18.257,56.013L22.77,37.648C23.914,33.087 24.682,29.834 25.417,25.194L25.546,25.194C26.063,29.88 26.799,33.1 27.74,37.664C27.74,37.664 29.578,46.001 30.519,50.38C31.462,54.757 34.087,57.516 40.939,56.014L51.694,15.303L43.011,15.303L39.339,32.905C38.352,38.028 37.456,42.031 36.766,46.719L36.643,46.719C36.015,42.078 35.217,38.234 34.213,33.242L30.39,15.303L21.343,15.303L17.253,32.79C16.095,38.103 15.011,42.394 14.322,46.922L14.198,46.922C13.492,42.658 12.552,37.265 11.534,32.122C11.534,32.122 9.105,19.614 8.252,15.303L-0.893,15.305L-0.893,15.3ZM81.885,15.3L81.885,56.011L90.152,56.011L90.152,15.298L81.885,15.3ZM198.322,15.3L198.322,45.333C198.322,49.474 199.101,52.375 200.769,54.148C202.225,55.698 204.625,56.702 207.499,56.702C209.943,56.702 212.349,56.238 213.481,55.816L213.375,49.355C212.531,49.563 211.561,49.729 210.235,49.729C207.419,49.729 206.473,47.925 206.473,44.207L206.473,32.717L213.675,32.717L213.675,24.927L206.473,24.927L206.473,15.3L198.322,15.3ZM63.409,24.738C58.271,24.738 54.192,26.18 51.969,27.465L53.596,33.036C55.631,31.754 58.871,30.692 61.938,30.692C67.017,30.679 67.847,33.564 67.847,35.414L67.847,35.851C56.781,35.835 49.791,39.664 49.791,47.469C49.791,52.235 53.349,56.701 59.536,56.701C63.345,56.701 66.531,55.182 68.44,52.748L68.627,52.748C68.627,52.748 69.891,58.034 76.856,56.013C76.49,53.813 76.372,51.467 76.372,48.642L76.372,37.766C76.372,30.835 73.412,24.738 63.409,24.738ZM112.863,24.738C107.69,24.738 105.365,27.36 103.955,29.584L103.833,29.584L103.833,25.428L95.943,25.428L95.943,56.013L104.254,56.013L104.254,38.076C104.254,37.236 104.35,36.347 104.644,35.573C105.332,33.767 107.013,31.654 109.695,31.654C113.049,31.654 114.618,34.49 114.618,38.582L114.618,56.013L122.92,56.013L122.92,37.859C122.92,37.057 123.03,36.09 123.267,35.38C123.949,33.326 125.761,31.654 128.254,31.654C131.654,31.654 133.286,34.44 133.286,39.255L133.286,56.013L141.594,56.013L141.594,37.999C141.594,28.499 136.77,24.738 131.325,24.738C128.913,24.738 127.01,25.343 125.289,26.399C123.842,27.287 122.547,28.548 121.415,30.209L121.293,30.209C119.976,26.912 116.888,24.738 112.863,24.738ZM158.503,24.738C153.366,24.738 149.288,26.18 147.063,27.465L148.692,33.036C150.725,31.754 153.967,30.692 157.032,30.692C162.108,30.679 162.94,33.564 162.94,35.414L162.94,35.851C151.875,35.835 144.884,39.664 144.884,47.469C144.884,52.235 148.444,56.701 154.635,56.701C158.441,56.701 161.628,55.182 163.533,52.748L163.721,52.748C163.721,52.748 164.985,58.034 171.951,56.013C171.585,53.813 171.467,51.467 171.467,48.642L171.467,37.766C171.467,30.835 168.507,24.738 158.503,24.738ZM193.017,24.738C189.835,24.738 186.214,26.792 184.694,31.196L184.462,31.196L184.462,25.428L176.98,25.428L176.98,56.013L185.509,56.013L185.509,40.351C185.509,39.507 185.56,38.77 185.694,38.094C186.325,34.814 188.834,32.717 192.435,32.717C193.424,32.717 194.132,32.824 194.897,32.934L194.897,24.927C194.255,24.797 193.816,24.738 193.017,24.738ZM68.114,41.271L68.114,45.086C68.114,45.651 68.065,46.233 67.909,46.742C67.269,48.861 65.073,50.652 62.329,50.652C60.041,50.652 58.224,49.354 58.224,46.607C58.224,42.405 62.849,41.244 68.114,41.271ZM163.208,41.271L163.208,45.086C163.208,45.651 163.158,46.233 163.002,46.742C162.362,48.861 160.168,50.652 157.424,50.652C155.135,50.652 153.318,49.354 153.318,46.607C153.318,42.405 157.942,41.244 163.208,41.271Z" fill="#404653"/>
<path d="M258.921,0.922C256.253,0.922 254.131,2.412 254.131,4.227L255.753,22.58C255.931,23.686 257.285,24.539 258.923,24.539C260.565,24.537 261.915,23.685 262.097,22.58L263.725,4.227C263.725,2.413 261.597,0.922 258.925,0.922L258.921,0.922ZM232.507,15.644C231.123,15.677 229.549,16.726 228.547,18.462C227.209,20.774 227.445,23.357 229.013,24.263L245.715,32.042C246.759,32.43 248.177,31.689 248.997,30.274C249.821,28.853 249.757,27.253 248.889,26.544L233.803,15.963C233.411,15.736 232.969,15.633 232.507,15.644ZM285.337,15.644C284.875,15.633 284.435,15.736 284.043,15.962L268.955,26.544C268.093,27.253 268.029,28.851 268.849,30.273C269.673,31.688 271.085,32.43 272.129,32.042L288.839,24.263C290.413,23.357 290.639,20.774 289.309,18.462C288.303,16.726 286.727,15.677 285.341,15.645L285.337,15.644ZM246.339,39.86C246.123,39.857 245.913,39.89 245.717,39.964L229.015,47.733C227.447,48.643 227.211,51.227 228.549,53.541C229.885,55.848 232.237,56.945 233.805,56.041L248.891,45.468C249.759,44.75 249.823,43.152 248.999,41.731L249.005,41.734C248.339,40.577 247.275,39.872 246.339,39.86ZM271.513,39.86C270.577,39.872 269.515,40.578 268.847,41.735L268.853,41.731C268.033,43.152 268.095,44.75 268.959,45.468L284.047,56.041C285.611,56.945 287.967,55.849 289.307,53.542C290.637,51.228 290.413,48.644 288.839,47.733L272.133,39.964C271.937,39.89 271.727,39.857 271.513,39.86ZM258.919,47.466C257.285,47.468 255.933,48.317 255.755,49.42L254.133,67.773C254.133,69.591 256.255,71.078 258.925,71.078C261.599,71.078 263.723,69.591 263.723,67.773L262.099,49.42C261.917,48.317 260.567,47.468 258.925,47.466L258.919,47.466Z" fill="#404653"/>
</g>
</svg>
